<svg width="50" height="50" viewBox="0 0 50 50" fill="none" xmlns="http://www.w3.org/2000/svg">
<path d="M25 1.5625C12.0562 1.5625 1.5625 12.0562 1.5625 25C1.5625 37.9438 12.0562 48.4375 25 48.4375C37.9438 48.4375 48.4375 37.9438 48.4375 25C48.4375 12.0562 37.9438 1.5625 25 1.5625ZM32.1055 29.1672C32.1055 31.0961 31.7797 32.6234 31.1281 33.7508C30.025 35.6578 28.0352 36.6117 25.1578 36.6117C22.2805 36.6117 20.3508 35.8398 19.368 34.2969C18.3867 32.7539 17.8953 30.6484 17.8953 27.9828V27.4609H22.3711V27.9828C22.4094 29.7359 22.5891 30.9687 22.9125 31.6812C23.2344 32.3937 23.9258 32.7508 24.9844 32.7508C26.0344 32.7508 26.7273 32.3617 27.0648 31.582C27.2672 31.1195 27.368 30.3414 27.368 29.2445V13.3898H32.1047L32.1055 29.1672Z" fill="url(#paint0_linear_15_63)"/>
<defs>
<linearGradient id="paint0_linear_15_63" x1="2" y1="2" x2="48" y2="50.5" gradientUnits="userSpaceOnUse">
<stop stop-color="#FFDB6E"/>
<stop offset="1" stop-color="#FFBC5E"/>
</linearGradient>
</defs>
</svg>
