<svg width="50" height="50" viewBox="0 0 50 50" fill="none" xmlns="http://www.w3.org/2000/svg">
<path d="M21.6809 28.6605V31.1227L12.9297 27.329V25.2239L21.6809 21.4312V23.9104L15.5833 26.2599L21.6809 28.6605Z" fill="url(#paint0_linear_4_39)"/>
<path d="M27.0923 21.3788L24.6558 31.4094C24.5747 31.7395 24.504 32.0008 24.4431 32.1924C24.3821 32.3839 24.2898 32.5337 24.165 32.6397C24.0403 32.7474 23.8591 32.8008 23.6209 32.8008C23.0301 32.8008 22.7339 32.5449 22.7339 32.0356C22.7339 31.9021 22.7918 31.5686 22.9077 31.0352L25.3349 21.0046C25.4626 20.4713 25.5844 20.1058 25.7003 19.9089C25.8162 19.7117 26.0421 19.613 26.379 19.613C26.6688 19.613 26.8908 19.6827 27.044 19.822C27.1978 19.9612 27.2749 20.1527 27.2749 20.3961C27.275 20.5759 27.2136 20.9034 27.0923 21.3788Z" fill="url(#paint1_linear_4_39)"/>
<path d="M37.0702 27.329L28.3191 31.1398V28.6776L34.4349 26.277L28.3191 23.9104V21.4659L37.0702 25.2411V27.329Z" fill="url(#paint2_linear_4_39)"/>
<path d="M42.7032 7.29678H7.29678C5.96377 7.29678 4.88281 8.37803 4.88281 9.71104V40.2893C4.88281 41.6218 5.96377 42.7033 7.29678 42.7033H42.7033C44.0367 42.7033 45.1173 41.6218 45.1173 40.2893V9.71104C45.1172 8.37755 44.0366 7.29678 42.7032 7.29678ZM36.6681 8.90626C37.555 8.90626 38.2774 9.62794 38.2774 10.5157C38.2774 11.4032 37.555 12.125 36.6681 12.125C35.7805 12.125 35.0586 11.4032 35.0586 10.5157C35.0586 9.62803 35.7805 8.90626 36.6681 8.90626ZM32.2424 8.90626C33.1294 8.90626 33.8514 9.62794 33.8514 10.5157C33.8514 11.4032 33.1294 12.125 32.2424 12.125C31.3549 12.125 30.6329 11.4032 30.6329 10.5157C30.6328 9.62803 31.3549 8.90626 32.2424 8.90626ZM42.7032 40.2893H7.29678V13.7345H42.7033V40.2893H42.7032ZM41.0937 12.125C40.2067 12.125 39.4844 11.4032 39.4844 10.5157C39.4844 9.62794 40.2067 8.90626 41.0937 8.90626C41.9808 8.90626 42.7032 9.62794 42.7032 10.5157C42.7032 11.4032 41.9808 12.125 41.0937 12.125Z" fill="url(#paint3_linear_4_39)"/>
<defs>
<linearGradient id="paint0_linear_4_39" x1="13.1727" y1="21.6236" x2="23.1912" y2="28.7574" gradientUnits="userSpaceOnUse">
<stop stop-color="#FFDB6E"/>
<stop offset="1" stop-color="#FFBC5E"/>
</linearGradient>
<linearGradient id="paint1_linear_4_39" x1="22.86" y1="19.8749" x2="30.1565" y2="21.8562" gradientUnits="userSpaceOnUse">
<stop stop-color="#FFDB6E"/>
<stop offset="1" stop-color="#FFBC5E"/>
</linearGradient>
<linearGradient id="paint2_linear_4_39" x1="28.5621" y1="21.6581" x2="38.5683" y2="28.796" gradientUnits="userSpaceOnUse">
<stop stop-color="#FFDB6E"/>
<stop offset="1" stop-color="#FFBC5E"/>
</linearGradient>
<linearGradient id="paint3_linear_4_39" x1="6" y1="8" x2="44.5" y2="42.5" gradientUnits="userSpaceOnUse">
<stop stop-color="#FFDB6E"/>
<stop offset="1" stop-color="#FFBC5E"/>
</linearGradient>
</defs>
</svg>
