<svg width="49" height="52" viewBox="0 0 49 52" fill="none" xmlns="http://www.w3.org/2000/svg">
<g clip-path="url(#clip0_7_52)">
<path d="M18.6486 18.3399C16.4798 17.261 14.7848 15.5957 13.8264 13.6022C12.868 11.6087 12.6999 9.39843 13.3481 7.31421C13.9962 5.22999 15.4245 3.38829 17.4113 2.07473C19.3981 0.761183 21.8324 0.0491943 24.3367 0.0491943C26.841 0.0491943 29.2753 0.761183 31.2621 2.07473C33.2489 3.38829 34.6771 5.22999 35.3253 7.31421C35.9734 9.39843 35.8053 11.6087 34.8469 13.6022C33.8886 15.5957 32.1936 17.261 30.0248 18.3399L26.5996 13.2282C27.4624 12.799 28.1367 12.1365 28.518 11.3434C28.8992 10.5503 28.9661 9.67104 28.7083 8.84188C28.4504 8.01271 27.8822 7.28003 27.0918 6.75746C26.3014 6.23489 25.333 5.95164 24.3367 5.95164C23.3404 5.95164 22.3719 6.23489 21.5815 6.75746C20.7911 7.28003 20.2229 8.01271 19.9651 8.84188C19.7072 9.67104 19.7741 10.5503 20.1554 11.3434C20.5366 12.1365 21.211 12.799 22.0738 13.2282L18.6486 18.3399Z" fill="url(#paint0_linear_7_52)"/>
<path d="M43.0098 20.7129C45.1786 21.7918 46.8736 23.4571 47.8319 25.4506C48.7903 27.4441 48.9584 29.6543 48.3103 31.7386C47.6621 33.8228 46.2339 35.6645 44.2471 36.978C42.2603 38.2916 39.826 39.0036 37.3217 39.0036C34.8174 39.0036 32.3831 38.2916 30.3963 36.978C28.4095 35.6645 26.9812 33.8228 26.3331 31.7386C25.6849 29.6543 25.8531 27.4441 26.8114 25.4506C27.7698 23.4571 29.4648 21.7918 31.6336 20.7129L35.0588 25.8245C34.196 26.2538 33.5216 26.9163 33.1404 27.7093C32.7591 28.5024 32.6922 29.3817 32.9501 30.2109C33.2079 31.0401 33.7761 31.7727 34.5665 32.2953C35.3569 32.8179 36.3254 33.1011 37.3217 33.1011C38.318 33.1011 39.2864 32.8179 40.0768 32.2953C40.8672 31.7727 41.4354 31.0401 41.6933 30.2109C41.9511 29.3817 41.8842 28.5024 41.503 27.7093C41.1217 26.9163 40.4474 26.2538 39.5846 25.8245L43.0098 20.7129Z" fill="url(#paint1_linear_7_52)"/>
<path d="M22.9729 29.2016C22.9729 31.3594 22.1466 33.4568 20.622 35.1687C19.0975 36.8805 16.96 38.1111 14.5411 38.6696C12.1221 39.228 9.55684 39.0832 7.24317 38.2574C4.9295 37.4317 2.99671 35.9713 1.74456 34.1026C0.492413 32.2339 -0.00911478 30.0615 0.317762 27.9222C0.644638 25.7829 1.78165 23.7964 3.55246 22.2706C5.32326 20.7448 7.6289 19.7652 10.1118 19.4835C12.5946 19.2019 15.116 19.634 17.2848 20.7129L13.8596 25.8246C12.9968 25.3953 11.9937 25.2234 11.0059 25.3355C10.0182 25.4475 9.10092 25.8373 8.39644 26.4443C7.69196 27.0512 7.23963 27.8416 7.10958 28.6926C6.97954 29.5437 7.17907 30.408 7.67721 31.1514C8.17535 31.8948 8.94427 32.4758 9.86472 32.8043C10.7852 33.1328 11.8057 33.1904 12.768 32.9683C13.7304 32.7461 14.5807 32.2565 15.1872 31.5755C15.7937 30.8945 16.1225 30.06 16.1225 29.2016L22.9729 29.2016Z" fill="url(#paint2_linear_7_52)"/>
<path fill-rule="evenodd" clip-rule="evenodd" d="M3.4692 41.3537C4.43205 41.2791 5.40552 41.2798 6.36347 41.3981C6.95392 41.4881 7.5803 41.6197 8.02375 41.9905C8.48843 42.4374 8.60277 43.058 8.70485 43.63C8.87227 44.8171 8.85267 46.0211 8.70485 47.2088C8.60603 47.7886 8.50885 48.4149 8.06785 48.8863C7.58683 49.3071 6.87633 49.4267 6.22463 49.5154C5.2626 49.6188 4.28668 49.6428 3.32057 49.5597C2.66642 49.502 1.98368 49.4028 1.42672 49.0813C1.06657 48.8842 0.873017 48.5366 0.741534 48.1996C0.47775 47.4973 0.444267 46.7515 0.408334 46.0197C0.40425 45.0528 0.425484 44.0762 0.64435 43.1248C0.762767 42.6808 0.9065 42.1925 1.34178 41.8962C1.9551 41.5127 2.73502 41.4199 3.4692 41.3537ZM3.62845 42.6787C4.4443 42.6224 5.2773 42.6055 6.08417 42.742C6.39695 42.7962 6.76608 42.9271 6.82488 43.2339C7.06988 44.0973 7.01272 44.9965 7.02252 45.8789C6.9923 46.5066 7.00945 47.1553 6.76527 47.7563C6.55212 48.151 5.97147 48.1834 5.53373 48.2411C4.65582 48.284 3.74442 48.322 2.89263 48.0975C2.49982 48.0082 2.37568 47.6451 2.31525 47.3404C2.15192 46.4376 2.205 45.5194 2.22542 44.6095C2.2687 44.0994 2.26135 43.5702 2.4745 43.0854C2.71868 42.7603 3.22338 42.7315 3.62845 42.6787Z" fill="url(#paint3_linear_7_52)"/>
<path fill-rule="evenodd" clip-rule="evenodd" d="M12.2312 44.1036C12.8159 43.7834 13.542 43.7314 14.2165 43.7841C14.8462 43.8306 15.5452 44.0149 15.8825 44.5145C16.2851 45.1415 16.308 45.8824 16.3358 46.5819C16.3178 47.301 16.3023 48.0518 15.9577 48.7203C15.7608 49.1263 15.3084 49.3923 14.8241 49.4971C14.0826 49.654 13.2676 49.6709 12.553 49.4162C12.1667 49.286 11.8996 49.0031 11.6783 48.7132C11.6783 49.8088 11.6783 50.9044 11.6783 52H10.045C10.0458 49.2797 10.0434 46.5587 10.0458 43.8383C10.5742 43.8362 11.1026 43.8362 11.6301 43.8383C11.6122 44.1184 11.5942 44.3977 11.5852 44.6785C11.7812 44.4723 11.9633 44.2457 12.2312 44.1036ZM12.7629 44.8382C13.2202 44.808 13.7037 44.7995 14.1316 44.9621C14.4027 45.0627 14.5456 45.3097 14.5938 45.5489C14.7359 46.166 14.718 46.8035 14.6673 47.4284C14.6167 47.8055 14.5465 48.2939 14.0646 48.4402C13.5077 48.5971 12.8723 48.607 12.3219 48.4233C11.8098 48.2376 11.7502 47.7035 11.6996 47.289C11.6693 46.6529 11.6326 45.9985 11.8408 45.3807C11.9511 45.0303 12.3741 44.8643 12.7629 44.8382Z" fill="url(#paint4_linear_7_52)"/>
<path fill-rule="evenodd" clip-rule="evenodd" d="M18.2901 44.1142C19.0929 43.7588 20.0328 43.7462 20.914 43.782C21.6474 43.8348 22.5376 43.9404 22.9418 44.5448C23.3975 45.2745 23.3232 46.1329 23.3869 46.9337C21.8973 46.9337 20.4077 46.9337 18.9189 46.9337C18.9712 47.3468 18.9091 47.7922 19.1508 48.1707C19.3575 48.4698 19.796 48.531 20.1668 48.5486C20.6249 48.5514 21.1182 48.5838 21.5404 48.4001C21.7821 48.2369 21.7838 47.947 21.8148 47.7077C22.3375 47.707 22.8601 47.707 23.3828 47.7077C23.3632 48.1778 23.293 48.7041 22.8552 49.0348C22.1978 49.5429 21.257 49.5956 20.4159 49.6097C19.6735 49.5907 18.8895 49.5583 18.2247 49.2431C17.6866 48.9694 17.5151 48.4072 17.4203 47.9118C17.3003 47.1758 17.2701 46.4257 17.3721 45.6868C17.4554 45.1035 17.6376 44.4174 18.2901 44.1142ZM19.2448 45.0099C19.6907 44.7763 20.2427 44.8234 20.7433 44.8298C21.0537 44.8586 21.4318 44.8741 21.6335 45.1105C21.8393 45.4026 21.8025 45.76 21.8042 46.0879C20.843 46.0893 19.8826 46.0914 18.9222 46.0872C18.9369 45.7227 18.9034 45.278 19.2448 45.0099Z" fill="url(#paint5_linear_7_52)"/>
<path fill-rule="evenodd" clip-rule="evenodd" d="M26.8651 44.1106C27.4302 43.7729 28.1603 43.7257 28.8251 43.7919C29.391 43.8433 29.9905 44.029 30.3245 44.4498C30.6209 44.7988 30.7034 45.2435 30.7075 45.6664C30.705 46.9569 30.7083 48.2467 30.7067 49.5372C30.1889 49.5379 29.672 49.5379 29.1558 49.5372C29.1534 48.3164 29.1575 47.0962 29.1534 45.8761C29.1379 45.6094 29.1501 45.3012 28.9173 45.0958C28.6691 44.8643 28.2795 44.8192 27.9324 44.8213C27.5127 44.8192 27.0586 44.8811 26.7352 45.1309C26.4192 45.3631 26.2991 45.7375 26.2975 46.0837C26.295 47.2349 26.2983 48.386 26.2958 49.5365C25.7789 49.5379 25.262 49.5379 24.7458 49.5372C24.745 47.6374 24.745 45.7375 24.7458 43.8376C25.2538 43.8362 25.7626 43.8369 26.2705 43.8376C26.2681 44.1712 26.2297 44.5026 26.2183 44.8361C26.3849 44.5666 26.5596 44.2823 26.8651 44.1106Z" fill="url(#paint6_linear_7_52)"/>
<path fill-rule="evenodd" clip-rule="evenodd" d="M33.5152 41.6141C34.3711 41.3664 35.2833 41.3312 36.1783 41.3038C37.0456 41.3073 37.9521 41.3143 38.7623 41.6155C39.1739 41.7632 39.4589 42.0869 39.5977 42.4444C39.8239 42.9785 39.8305 43.5569 39.8354 44.1191C39.2384 44.1191 38.6414 44.1205 38.0452 44.1184C38.0354 43.7229 38.0706 43.2796 37.7864 42.9433C37.4989 42.69 37.0497 42.6907 36.6683 42.652C35.8925 42.6393 35.0848 42.5964 34.3417 42.8272C34.0738 42.9003 33.9349 43.1311 33.881 43.3535C33.7283 43.9502 33.7275 44.5659 33.7283 45.1746C33.7373 45.988 33.7226 46.8134 33.9243 47.6134C33.9774 47.9061 34.2902 48.0863 34.6038 48.151C35.329 48.3065 36.086 48.284 36.8268 48.246C37.213 48.2024 37.6834 48.1806 37.926 47.8752C38.1849 47.5107 38.1416 47.0625 38.1277 46.6529C38.7304 46.6508 39.3323 46.6515 39.935 46.6529C39.9277 47.2996 39.9146 47.9674 39.6418 48.5795C39.5014 48.8997 39.2114 49.1713 38.8358 49.2937C38.0983 49.5485 37.2898 49.5646 36.5074 49.6055C35.6001 49.6188 34.6814 49.5998 33.7945 49.4176C33.2743 49.3008 32.7059 49.0953 32.4649 48.6499C32.1571 48.0609 32.1007 47.4058 32.0215 46.7719C31.9554 45.9345 31.9129 45.0957 31.9366 44.257C31.9831 43.578 32.055 42.8623 32.4805 42.2706C32.7067 41.9413 33.1036 41.7351 33.5152 41.6141Z" fill="url(#paint7_linear_7_52)"/>
<path fill-rule="evenodd" clip-rule="evenodd" d="M40.229 41.3769C40.8513 41.3776 41.4736 41.3622 42.0951 41.3847C42.7002 43.039 43.365 44.6764 43.9759 46.3286C44.2135 46.9633 44.3818 47.6162 44.6276 48.2488C44.9028 47.5663 45.0792 46.857 45.3487 46.173C45.9457 44.575 46.559 42.982 47.1551 41.384C47.7693 41.3615 48.385 41.3812 49 41.3741V41.5493C47.989 44.2042 47.0016 46.8661 46.011 49.5274C45.0865 49.5435 44.1604 49.5457 43.236 49.526C42.2511 46.8049 41.2188 44.0966 40.229 41.3769Z" fill="url(#paint8_linear_7_52)"/>
</g>
<defs>
<linearGradient id="paint0_linear_7_52" x1="24.3367" y1="0.0491943" x2="24.3367" y2="18.3399" gradientUnits="userSpaceOnUse">
<stop stop-color="#FFDB6E"/>
<stop offset="1" stop-color="#FFBC5E"/>
</linearGradient>
<linearGradient id="paint1_linear_7_52" x1="37.3217" y1="39.0036" x2="37.3217" y2="20.7129" gradientUnits="userSpaceOnUse">
<stop stop-color="#FFDB6E"/>
<stop offset="1" stop-color="#FFBC5E"/>
</linearGradient>
<linearGradient id="paint2_linear_7_52" x1="1.74456" y1="34.1026" x2="18.6613" y2="22.7671" gradientUnits="userSpaceOnUse">
<stop stop-color="#FFDB6E"/>
<stop offset="1" stop-color="#FFBC5E"/>
</linearGradient>
<linearGradient id="paint3_linear_7_52" x1="0.510446" y1="41.4559" x2="8.99935" y2="41.8587" gradientUnits="userSpaceOnUse">
<stop offset="0.223958" stop-color="#FFDB6E"/>
<stop offset="1" stop-color="#FFBC5E"/>
</linearGradient>
<linearGradient id="paint4_linear_7_52" x1="10.1213" y1="43.9182" x2="16.4736" y2="44.1455" gradientUnits="userSpaceOnUse">
<stop offset="0.223958" stop-color="#FFDB6E"/>
<stop offset="1" stop-color="#FFBC5E"/>
</linearGradient>
<linearGradient id="paint5_linear_7_52" x1="17.3844" y1="43.8763" x2="23.5133" y2="44.175" gradientUnits="userSpaceOnUse">
<stop offset="0.223958" stop-color="#FFDB6E"/>
<stop offset="1" stop-color="#FFBC5E"/>
</linearGradient>
<linearGradient id="paint6_linear_7_52" x1="24.8179" y1="43.8728" x2="30.8318" y2="44.1638" gradientUnits="userSpaceOnUse">
<stop offset="0.223958" stop-color="#FFDB6E"/>
<stop offset="1" stop-color="#FFBC5E"/>
</linearGradient>
<linearGradient id="paint7_linear_7_52" x1="32.0275" y1="41.457" x2="40.1043" y2="41.8217" gradientUnits="userSpaceOnUse">
<stop offset="0.223958" stop-color="#FFDB6E"/>
<stop offset="1" stop-color="#FFBC5E"/>
</linearGradient>
<linearGradient id="paint8_linear_7_52" x1="40.3359" y1="41.5231" x2="49.1812" y2="41.968" gradientUnits="userSpaceOnUse">
<stop offset="0.223958" stop-color="#FFDB6E"/>
<stop offset="1" stop-color="#FFBC5E"/>
</linearGradient>
<clipPath id="clip0_7_52">
<rect width="49" height="52" fill="white"/>
</clipPath>
</defs>
</svg>
