<svg width="50" height="50" viewBox="0 0 50 50" fill="none" xmlns="http://www.w3.org/2000/svg">
<g clip-path="url(#clip0_1_23)">
<path d="M11.9707 8.11691H38.0293C39.0156 8.11691 39.9121 8.52359 40.5605 9.17585L40.6152 9.23675C41.2334 9.88508 41.6152 10.7643 41.6152 11.723V38.277C41.6152 39.2633 41.21 40.1641 40.5605 40.8183L40.5566 40.8222C39.9062 41.4755 39.0107 41.8831 38.0293 41.8831H11.9707C10.9893 41.8831 10.0928 41.4764 9.44238 40.8232C8.79004 40.17 8.38477 39.2682 8.38477 38.277V11.723C8.38477 10.7309 8.78809 9.82811 9.4375 9.17585L9.49707 9.12084C10.1416 8.50001 11.0146 8.11691 11.9707 8.11691ZM16.3125 24.6169C17.0771 24.6169 17.7734 24.9303 18.2783 25.4371L18.2822 25.4411C18.7871 25.9509 19.0977 26.6503 19.0977 27.4185C19.0977 28.1906 18.7861 28.892 18.2822 29.3988L18.2295 29.448C17.9541 29.7102 17.626 29.9175 17.2637 30.0501V34.169H26.8018C27.2725 34.169 27.6543 34.5521 27.6543 35.0256V39.9833H38.0293C38.4932 39.9833 38.918 39.7908 39.2266 39.4814C39.5352 39.17 39.7266 38.7426 39.7266 38.277V11.723C39.7266 11.2751 39.5508 10.8635 39.2656 10.557L39.2256 10.5187C38.918 10.2092 38.4941 10.0167 38.0293 10.0167H35.6094V23.6444C35.6094 24.1179 35.2285 24.502 34.7568 24.502H31.0225C30.8887 24.9529 30.6436 25.3586 30.3203 25.6837C29.8184 26.1926 29.1211 26.5069 28.3525 26.5069C27.5889 26.5069 26.8926 26.1925 26.3877 25.6857L26.3838 25.6827C25.8789 25.1729 25.5684 24.4735 25.5684 23.7053C25.5684 22.9322 25.8799 22.2309 26.3838 21.724C26.8877 21.2181 27.585 20.9037 28.3525 20.9037C29.1211 20.9037 29.8184 21.2181 30.3223 21.725L30.3701 21.778C30.6406 22.0648 30.8525 22.4077 30.9834 22.7869H33.9053V10.0167H11.9707C11.5234 10.0167 11.1143 10.1925 10.8096 10.4784L10.7725 10.5187C10.4648 10.8281 10.2734 11.2554 10.2734 11.723V15.168H25.0605V14.554C25.0605 14.2122 25.1992 13.9018 25.4219 13.6778C25.6445 13.4538 25.9541 13.3144 26.293 13.3144H29.1943C29.5342 13.3144 29.8428 13.4538 30.0654 13.6778C30.2871 13.9018 30.4268 14.2122 30.4268 14.554V17.4961C30.4268 17.837 30.2871 18.1483 30.0654 18.3713C29.8428 18.5953 29.5342 18.7348 29.1943 18.7348H26.293C25.9541 18.7348 25.6445 18.5953 25.4219 18.3713C25.1992 18.1483 25.0605 17.837 25.0605 17.4961V16.8821H10.2734V20.6051H22.125C22.5957 20.6051 22.9775 20.9892 22.9775 21.4627V29.891H30.5234V29.0432C30.5234 28.6886 30.668 28.3654 30.8984 28.1336C31.1299 27.9008 31.4512 27.7554 31.8037 27.7554H35.0244C35.3779 27.7554 35.6982 27.9008 35.9297 28.1336C36.1602 28.3654 36.3047 28.6886 36.3047 29.0432V32.3085C36.3047 32.6641 36.1602 32.9863 35.9297 33.2191C35.6982 33.4519 35.3779 33.5973 35.0244 33.5973H31.8037C31.4512 33.5973 31.1299 33.4519 30.8984 33.2191C30.668 32.9863 30.5234 32.6641 30.5234 32.3085V31.6061H22.125C21.6543 31.6061 21.2725 31.222 21.2725 30.7485V22.3193H10.2734V38.277C10.2734 38.7436 10.4658 39.1709 10.7734 39.4804C11.0811 39.7908 11.5059 39.9833 11.9707 39.9833H25.9492V35.8831H16.4121C15.9414 35.8831 15.5596 35.499 15.5596 35.0256V30.1159C15.0938 29.9843 14.6768 29.7338 14.3438 29.3988C13.8398 28.892 13.5283 28.1906 13.5283 27.4185C13.5283 26.6483 13.8408 25.947 14.3457 25.4391C14.8477 24.9303 15.5439 24.6169 16.3125 24.6169ZM17.1631 26.559C16.9482 26.3428 16.6475 26.2083 16.3125 26.2083C15.9805 26.2083 15.6797 26.3438 15.4619 26.5629C15.2432 26.779 15.1104 27.0815 15.1104 27.4185C15.1104 27.7525 15.2451 28.055 15.4619 28.2741C15.6797 28.4922 15.9805 28.6277 16.3125 28.6277C16.6309 28.6277 16.918 28.5069 17.1309 28.3085L17.1631 28.2741C17.3809 28.055 17.5156 27.7525 17.5156 27.4185C17.5156 27.0815 17.3818 26.779 17.167 26.5629L17.1631 26.559ZM34.7227 29.3468H32.1055V32.0049H34.7227V29.3468ZM29.2031 22.8497C28.9863 22.6316 28.6855 22.4961 28.3525 22.4961C28.0205 22.4961 27.7197 22.6307 27.5029 22.8497C27.2852 23.0678 27.1504 23.3713 27.1504 23.7053C27.1504 24.0413 27.2842 24.3438 27.499 24.5609L27.5029 24.5639C27.7178 24.781 28.0186 24.9146 28.3525 24.9146C28.6855 24.9146 28.9863 24.779 29.2031 24.5609C29.3916 24.3743 29.5166 24.1248 29.5479 23.8448C29.5332 23.78 29.5244 23.7132 29.5244 23.6444C29.5244 23.5933 29.5293 23.5432 29.5381 23.4941C29.4971 23.2593 29.3906 23.0481 29.2383 22.8831L29.2031 22.8497ZM28.8437 14.9057H26.6426V17.1434H28.8437V14.9057ZM0 33.8291V36.8271C0 37.1356 0.250977 37.388 0.557617 37.388H4.93652C5.24316 37.388 5.49414 37.1356 5.49414 36.8271V33.8291C5.49414 33.5206 5.24316 33.2682 4.93652 33.2682H0.557617C0.250977 33.2682 0 33.5206 0 33.8291ZM0 26.944V29.9421C0 30.2505 0.250977 30.503 0.557617 30.503H4.93652C5.24316 30.503 5.49414 30.2505 5.49414 29.9421V26.944C5.49414 26.6356 5.24316 26.3831 4.93652 26.3831H0.557617C0.250977 26.3831 0 26.6356 0 26.944ZM0 20.059V23.057C0 23.3654 0.250977 23.6179 0.557617 23.6179H4.93652C5.24316 23.6179 5.49414 23.3654 5.49414 23.057V20.059C5.49414 19.7505 5.24316 19.4981 4.93652 19.4981H0.557617C0.250977 19.4981 0 19.7505 0 20.059ZM0 13.1739V16.1719C0 16.4804 0.250977 16.7328 0.557617 16.7328H4.93652C5.24316 16.7328 5.49414 16.4804 5.49414 16.1719V13.1739C5.49414 12.8654 5.24316 12.613 4.93652 12.613H0.557617C0.250977 12.613 0 12.8654 0 13.1739ZM50 33.8291V36.8271C50 37.1356 49.749 37.388 49.4424 37.388H45.0625C44.7568 37.388 44.5059 37.1356 44.5059 36.8271V33.8291C44.5059 33.5206 44.7568 33.2682 45.0625 33.2682H49.4424C49.749 33.2682 50 33.5206 50 33.8291ZM50 26.944V29.9421C50 30.2505 49.749 30.503 49.4424 30.503H45.0625C44.7568 30.503 44.5059 30.2505 44.5059 29.9421V26.944C44.5059 26.6356 44.7568 26.3831 45.0625 26.3831H49.4424C49.749 26.3831 50 26.6356 50 26.944ZM50 20.059V23.057C50 23.3654 49.749 23.6179 49.4424 23.6179H45.0625C44.7568 23.6179 44.5059 23.3654 44.5059 23.057V20.059C44.5059 19.7505 44.7568 19.4981 45.0625 19.4981H49.4424C49.749 19.4981 50 19.7505 50 20.059ZM50 13.1739V16.1719C50 16.4804 49.749 16.7328 49.4424 16.7328H45.0625C44.7568 16.7328 44.5059 16.4804 44.5059 16.1719V13.1739C44.5059 12.8654 44.7568 12.613 45.0625 12.613H49.4424C49.749 12.613 50 12.8654 50 13.1739ZM33.7764 49.9922H36.7568C37.0635 49.9922 37.3145 49.7397 37.3145 49.4313V45.0265C37.3145 44.7181 37.0635 44.4656 36.7568 44.4656H33.7764C33.4697 44.4656 33.2188 44.7181 33.2188 45.0265V49.4313C33.2188 49.7397 33.4697 49.9922 33.7764 49.9922ZM26.9326 49.9922H29.9131C30.2197 49.9922 30.4697 49.7397 30.4697 49.4313V45.0265C30.4697 44.7181 30.2197 44.4656 29.9131 44.4656H26.9326C26.626 44.4656 26.375 44.7181 26.375 45.0265V49.4313C26.375 49.7397 26.626 49.9922 26.9326 49.9922ZM20.0879 49.9922H23.0684C23.374 49.9922 23.625 49.7397 23.625 49.4313V45.0265C23.625 44.7181 23.374 44.4656 23.0684 44.4656H20.0879C19.7812 44.4656 19.5303 44.7181 19.5303 45.0265V49.4313C19.5303 49.7397 19.7812 49.9922 20.0879 49.9922ZM13.2432 49.9922H16.2236C16.5303 49.9922 16.7803 49.7397 16.7803 49.4313V45.0265C16.7803 44.7181 16.5303 44.4656 16.2236 44.4656H13.2432C12.9365 44.4656 12.6855 44.7181 12.6855 45.0265V49.4313C12.6855 49.7397 12.9365 49.9922 13.2432 49.9922ZM33.7764 0.00787354H36.7568C37.0635 0.00787354 37.3145 0.260329 37.3145 0.568777V4.97447C37.3145 5.28194 37.0635 5.5344 36.7568 5.5344H33.7764C33.4697 5.5344 33.2188 5.28194 33.2188 4.97447V0.568777C33.2188 0.260329 33.4697 0.00787354 33.7764 0.00787354ZM26.9326 0.00787354H29.9131C30.2197 0.00787354 30.4697 0.260329 30.4697 0.568777V4.97447C30.4697 5.28194 30.2197 5.5344 29.9131 5.5344H26.9326C26.626 5.5344 26.375 5.28194 26.375 4.97447V0.568777C26.375 0.260329 26.626 0.00787354 26.9326 0.00787354ZM20.0879 0.00787354H23.0684C23.374 0.00787354 23.625 0.260329 23.625 0.568777V4.97447C23.625 5.28194 23.374 5.5344 23.0684 5.5344H20.0879C19.7812 5.5344 19.5303 5.28194 19.5303 4.97447V0.568777C19.5303 0.260329 19.7812 0.00787354 20.0879 0.00787354ZM13.2432 0.00787354H16.2236C16.5303 0.00787354 16.7803 0.260329 16.7803 0.568777V4.97447C16.7803 5.28194 16.5303 5.5344 16.2236 5.5344H13.2432C12.9365 5.5344 12.6855 5.28194 12.6855 4.97447V0.568777C12.6855 0.260329 12.9365 0.00787354 13.2432 0.00787354Z" fill="url(#paint0_linear_1_23)"/>
</g>
<defs>
<linearGradient id="paint0_linear_1_23" x1="6" y1="2.5" x2="44" y2="47" gradientUnits="userSpaceOnUse">
<stop offset="0.291667" stop-color="#FFDB6E"/>
<stop offset="1" stop-color="#FFBC5E"/>
</linearGradient>
<clipPath id="clip0_1_23">
<rect width="50" height="50" fill="white"/>
</clipPath>
</defs>
</svg>
