<svg width="50" height="50" viewBox="0 0 50 50" fill="none" xmlns="http://www.w3.org/2000/svg">
<path d="M47.9109 22.5359L42.2969 21.5C41.9516 20.8344 41.3641 20.2906 40.6031 20.0156C40.5078 19.9813 40.4109 19.9516 40.3141 19.9266L34.0266 7.48439C34.6234 6.28595 34.7 4.85314 34.1094 3.55314C33.0594 1.23751 30.2953 0.228136 27.9359 1.29845L4.47501 10.8688C1.6172 12.1656 0.331257 15.4906 1.60313 18.2953C2.14532 19.4906 3.06407 20.3969 4.16251 20.9453L12.7063 42.0109L13.0688 42.9313C11.4141 44.4625 10.3781 46.6531 10.3781 49.0859H27.15C27.15 44.4547 23.3953 40.7 18.7641 40.7C18.7484 40.7 18.7344 40.7 18.7188 40.7L18.1203 39.0578L18.2141 39.0813L18.05 38.8656L11.2016 20.05L11.1953 19.9703L30.0484 10.5313L36.6703 21.8C36.6609 21.825 36.65 21.8484 36.6422 21.8734C36.5906 22.0172 36.55 22.1625 36.5203 22.3094L31.2422 25.5234L33.0172 27.1406L35.5891 32.6297L38.2141 33.1188L37.1469 25.5281L37.55 25.2859C37.8234 25.5188 38.1438 25.7078 38.5016 25.8375C39.8609 26.3297 41.3406 25.8094 42.1156 24.6641L44.0391 32.0453L46.3328 30.6797L46.7922 25.3016L47.0094 25.3406L47.9141 22.5406L47.9109 22.5359ZM6.0422 12.3047C8.06407 11.9703 9.97344 13.3375 10.3078 15.3594C10.6422 17.3813 9.27501 19.2906 7.25313 19.625C5.23126 19.9594 3.32188 18.5922 2.98751 16.5703C2.65313 14.5484 4.02032 12.6391 6.0422 12.3047ZM27.1359 5.91407C26.8859 4.40314 27.9078 2.97657 29.4188 2.72657C30.6375 2.52501 31.8 3.15001 32.3359 4.1922C32.3672 4.25314 32.3953 4.31407 32.4219 4.37657C32.425 4.38282 32.4266 4.38907 32.4297 4.39376C32.4547 4.4547 32.4781 4.51564 32.5 4.5797C32.5 4.58126 32.5016 4.58282 32.5016 4.58439C32.5219 4.64532 32.5406 4.70939 32.5563 4.77189C32.5594 4.78595 32.5625 4.80001 32.5656 4.81251C32.5813 4.87657 32.5953 4.94064 32.6047 5.00626C32.6516 5.28907 32.6531 5.57032 32.6156 5.84064C32.4531 7.01095 31.5484 7.9922 30.3219 8.19532C30.2766 8.20314 30.2328 8.20939 30.1891 8.21407C30.175 8.21564 30.1609 8.2172 30.1469 8.21876C30.1172 8.22189 30.0859 8.22501 30.0563 8.22657C30.0391 8.22814 30.0219 8.22814 30.0063 8.2297C29.9781 8.23126 29.9516 8.23282 29.925 8.23282C29.9078 8.23282 29.8906 8.23282 29.8719 8.23282C29.8453 8.23282 29.8188 8.23282 29.7922 8.23126C29.775 8.23126 29.7578 8.2297 29.7406 8.2297C29.7141 8.22814 29.6875 8.22657 29.6609 8.22501C29.6438 8.22345 29.6281 8.22189 29.6109 8.22032C29.5813 8.2172 29.5531 8.21407 29.525 8.21095C29.5109 8.20939 29.4969 8.20782 29.4828 8.20626C29.4406 8.20001 29.4 8.19376 29.3578 8.18595C29.3563 8.18595 29.3563 8.18595 29.3547 8.18595C29.3141 8.17814 29.2719 8.16876 29.2313 8.15939C29.2172 8.15626 29.2031 8.15157 29.1891 8.14845C29.1625 8.1422 29.1344 8.13439 29.1078 8.12657C29.0922 8.12189 29.075 8.1172 29.0594 8.11251C29.0344 8.1047 29.0109 8.09689 28.9859 8.08907C28.9688 8.08282 28.9531 8.07814 28.9359 8.07189C28.9125 8.06407 28.8891 8.0547 28.8656 8.04532C28.85 8.03907 28.8328 8.03282 28.8172 8.02657C28.7938 8.0172 28.7703 8.00626 28.7469 7.99689C28.7313 7.99064 28.7156 7.98282 28.7016 7.97657C28.6766 7.96564 28.6516 7.95314 28.6266 7.94064C28.6141 7.93439 28.6016 7.92814 28.5891 7.92189C28.5531 7.90314 28.5156 7.88282 28.4813 7.86251C28.4813 7.86251 28.4797 7.86251 28.4797 7.86095C27.7891 7.45939 27.2766 6.76251 27.1359 5.91407Z" fill="url(#paint0_linear_6_49)"/>
<defs>
<linearGradient id="paint0_linear_6_49" x1="-1.5" y1="6.5" x2="48" y2="47.5" gradientUnits="userSpaceOnUse">
<stop stop-color="#FFDB6E"/>
<stop offset="1" stop-color="#FFBC5E"/>
</linearGradient>
</defs>
</svg>
