<svg width="50" height="50" viewBox="0 0 50 50" fill="none" xmlns="http://www.w3.org/2000/svg">
<path d="M41.5746 40.0644L32.5967 24.9769L41.5746 9.8894L45.9026 24.9769L41.5746 40.0644ZM21.5932 38.5922L10.3129 27.4146H28.2687L37.2466 42.5022L21.5932 38.5922ZM21.5932 11.3155L37.2009 7.40551L28.223 22.493H10.2672L21.5932 11.3155ZM44.5213 0L24.1251 5.28994L21.0864 10.4875L14.9633 10.4414L0 24.9769L14.9633 39.5125L21.0864 39.4663L24.1251 44.6639L44.5213 50L50 30.1745L46.9151 25.0231L50 19.8711L44.5213 0Z" fill="url(#paint0_linear_1_15)"/>
<defs>
<linearGradient id="paint0_linear_1_15" x1="2.00904" y1="3.01078" x2="45.4119" y2="49.2161" gradientUnits="userSpaceOnUse">
<stop offset="0.338542" stop-color="#FFDB6E"/>
<stop offset="1" stop-color="#FFBC5E"/>
</linearGradient>
</defs>
</svg>
